<svg width="32" height="32" viewBox="0 0 32 32" fill="none" xmlns="http://www.w3.org/2000/svg">
<path d="M29.3334 15.9998H26.0267C25.444 15.9986 24.877 16.1882 24.4122 16.5398C23.9475 16.8913 23.6107 17.3854 23.4534 17.9465L20.3201 29.0932C20.2999 29.1624 20.2578 29.2232 20.2001 29.2665C20.1424 29.3098 20.0722 29.3332 20.0001 29.3332C19.928 29.3332 19.8578 29.3098 19.8001 29.2665C19.7424 29.2232 19.7003 29.1624 19.6801 29.0932L12.3201 2.9065C12.2999 2.83727 12.2578 2.77644 12.2001 2.73317C12.1424 2.6899 12.0722 2.6665 12.0001 2.6665C11.928 2.6665 11.8578 2.6899 11.8001 2.73317C11.7424 2.77644 11.7003 2.83727 11.6801 2.9065L8.54675 14.0532C8.39003 14.612 8.05526 15.1045 7.59323 15.4559C7.13121 15.8072 6.56717 15.9982 5.98675 15.9998H2.66675" stroke="white" stroke-width="2.66667" stroke-linecap="round" stroke-linejoin="round"/>
</svg>
